# xmcd
#
# Track frame offsets:
#	150
#	20712
#	48955
#	78899
#	104408
#	105898
#	141151
#	141976
#	179148
#	199848
#	252234
#	268367
#	295639
#	319531
#
# Disc length: 4676 seconds
#
# Revision: 1
# Processed by: cddbd v1.5.2PL0 Copyright (c) Steve Scherf et al.
# Submitted via: audiograbber 1.83.01
#
DISCID=cd12420e
DTITLE=Walter Trout - Unspoiled By Progress
DYEAR=2009
DGENRE=
TTITLE0=They Call Us the Working Class
TTITLE1=Goin' Down
TTITLE2=Life in the Jungle
TTITLE3=Long Tall Sally
TTITLE4=Jimmy as Yoko
TTITLE5=Somebody's Actiing Like a Child
TTITLE6=Hey Barney
TTITLE7=Sweet As a Flower
TTITLE8=Two Sides To Every Story
TTITLE9=Finally Gotten Over You
TTITLE10=Goin' Back Home
TTITLE11=Marie's Mood
TTITLE12=She's Out There Somewhere
TTITLE13=So Afraid Of the Darkness
EXTD=
EXTT0=
EXTT1=
EXTT2=
EXTT3=
EXTT4=
EXTT5=
EXTT6=
EXTT7=
EXTT8=
EXTT9=
EXTT10=
EXTT11=
EXTT12=
EXTT13=
PLAYORDER=
